<?xml version="1.0" encoding="utf-8"?>
<!-- Generator: Adobe Illustrator 12.0.0, SVG Export Plug-In . SVG Version: 6.00 Build 51448)  -->
<!DOCTYPE svg PUBLIC "-//W3C//DTD SVG 1.1//EN" "http://www.w3.org/Graphics/SVG/1.1/DTD/svg11.dtd" [
	<!ENTITY ns_svg "http://www.w3.org/2000/svg">
	<!ENTITY ns_xlink "http://www.w3.org/1999/xlink">
]>
<svg  version="1.1" id="Ebene_1" xmlns="&ns_svg;" xmlns:xlink="&ns_xlink;" width="97.454" height="97.454"
	 viewBox="0 0 97.454 97.454" overflow="visible" enable-background="new 0 0 97.454 97.454" xml:space="preserve">
<linearGradient id="XMLID_3_" gradientUnits="userSpaceOnUse" x1="48.7271" y1="0.5" x2="48.727" y2="96.9541">
	<stop  offset="0" style="stop-color:#FFFFFF"/>
	<stop  offset="1" style="stop-color:#B8B8B8"/>
</linearGradient>
<path fill="url(#XMLID_3_)" stroke="#BCBDBE" d="M96.954,91.285c0,3.131-2.538,5.669-5.669,5.669H6.169
	c-3.131,0-5.669-2.538-5.669-5.669V6.169C0.5,3.038,3.038,0.5,6.169,0.5h85.115c3.131,0,5.669,2.538,5.669,5.669V91.285z"/>
<linearGradient id="XMLID_4_" gradientUnits="userSpaceOnUse" x1="48.6431" y1="6.731" x2="48.6431" y2="88.8916">
	<stop  offset="0" style="stop-color:#9E131C"/>
	<stop  offset="1" style="stop-color:#D00E1C"/>
</linearGradient>
<polygon fill="url(#XMLID_4_)" points="48.643,6.731 58.02,30.481 82.434,23.003 69.712,45.143 90.78,59.569 65.539,63.425 
	67.396,88.892 48.643,71.562 29.89,88.892 31.747,63.425 6.506,59.569 27.574,45.143 14.852,23.003 39.267,30.481 "/>
</svg>
